<svg xmlns="http://www.w3.org/2000/svg" viewBox="0 0 860 660" font-family="-apple-system,Helvetica Neue,Arial,sans-serif">
<defs>
<filter id="sh" x="-30%" y="-30%" width="160%" height="160%">
  <feDropShadow dx="0" dy="2" stdDeviation="2.5" flood-color="#000" flood-opacity="0.22"/>
</filter>
<filter id="sh2" x="-30%" y="-30%" width="160%" height="160%">
  <feDropShadow dx="0" dy="1.5" stdDeviation="1.8" flood-color="#000" flood-opacity="0.16"/>
</filter>
<marker id="ar" markerWidth="9" markerHeight="9" refX="7.5" refY="4.5" orient="auto">
  <path d="M0,0 L9,4.5 L0,9 z" fill="#5b6b7a"/></marker>
</defs>
<rect width="860" height="660" fill="#FBFCFE"/>
<rect x="0" y="0" width="860" height="62" fill="#2F3B4C"/>
<text x="430.0" y="30" text-anchor="middle" font-size="21" font-weight="700" fill="#fff">Jednopolna shema — WSCC 9 čvorova</text>
<text x="430.0" y="50" text-anchor="middle" font-size="13" fill="#B8C4D2">rješenje strujnog balansa (polarne koordinate)</text>
<line x1="430" y1="80" x2="430" y2="140" stroke="#9AA7B4" stroke-width="4" stroke-linecap="round" stroke-dasharray="9 5"/>
<circle cx="425" cy="110" r="7" fill="none" stroke="#6b7886" stroke-width="2.2"/>
<circle cx="435" cy="110" r="7" fill="none" stroke="#6b7886" stroke-width="2.2"/>
<line x1="430" y1="140" x2="274" y2="230" stroke="#9AA7B4" stroke-width="4" stroke-linecap="round"/>
<line x1="274" y1="230" x2="274" y2="410" stroke="#9AA7B4" stroke-width="4" stroke-linecap="round"/>
<line x1="165" y1="455" x2="274" y2="410" stroke="#9AA7B4" stroke-width="4" stroke-linecap="round" stroke-dasharray="9 5"/>
<circle cx="215" cy="432" r="7" fill="none" stroke="#6b7886" stroke-width="2.2"/>
<circle cx="225" cy="432" r="7" fill="none" stroke="#6b7886" stroke-width="2.2"/>
<line x1="274" y1="410" x2="430" y2="500" stroke="#9AA7B4" stroke-width="4" stroke-linecap="round"/>
<line x1="430" y1="500" x2="586" y2="410" stroke="#9AA7B4" stroke-width="4" stroke-linecap="round"/>
<line x1="586" y1="410" x2="695" y2="455" stroke="#9AA7B4" stroke-width="4" stroke-linecap="round" stroke-dasharray="9 5"/>
<circle cx="635" cy="433" r="7" fill="none" stroke="#6b7886" stroke-width="2.2"/>
<circle cx="645" cy="433" r="7" fill="none" stroke="#6b7886" stroke-width="2.2"/>
<line x1="586" y1="410" x2="586" y2="230" stroke="#9AA7B4" stroke-width="4" stroke-linecap="round"/>
<line x1="586" y1="230" x2="430" y2="140" stroke="#9AA7B4" stroke-width="4" stroke-linecap="round"/>
<circle cx="430" cy="80" r="29" fill="#E15759" filter="url(#sh)"/>
<circle cx="430" cy="80" r="29" fill="none" stroke="#fff" stroke-width="2.5"/>
<text x="430" y="86" text-anchor="middle" font-size="17" font-weight="700" fill="#fff">B1</text>
<circle cx="452" cy="58" r="10" fill="#fff" stroke="#E15759" stroke-width="2"/>
<text x="452" y="62" text-anchor="middle" font-size="11" font-weight="700" fill="#E15759">G</text>
<text x="470" y="78" text-anchor="start" font-size="12.5" font-weight="600" fill="#2F3B4C">1.040 p.u.</text>
<text x="470" y="94" text-anchor="start" font-size="11" fill="#6b7886">δ = +0.0°</text>
<circle cx="695" cy="455" r="29" fill="#59A14F" filter="url(#sh)"/>
<circle cx="695" cy="455" r="29" fill="none" stroke="#fff" stroke-width="2.5"/>
<text x="695" y="461" text-anchor="middle" font-size="17" font-weight="700" fill="#fff">B2</text>
<circle cx="717" cy="433" r="10" fill="#fff" stroke="#59A14F" stroke-width="2"/>
<text x="717" y="437" text-anchor="middle" font-size="11" font-weight="700" fill="#59A14F">G</text>
<text x="695" y="500" text-anchor="middle" font-size="12.5" font-weight="600" fill="#2F3B4C">1.025 p.u.</text>
<text x="695" y="516" text-anchor="middle" font-size="11" fill="#6b7886">δ = +9.3°</text>
<circle cx="165" cy="455" r="29" fill="#59A14F" filter="url(#sh)"/>
<circle cx="165" cy="455" r="29" fill="none" stroke="#fff" stroke-width="2.5"/>
<text x="165" y="461" text-anchor="middle" font-size="17" font-weight="700" fill="#fff">B3</text>
<circle cx="187" cy="433" r="10" fill="#fff" stroke="#59A14F" stroke-width="2"/>
<text x="187" y="437" text-anchor="middle" font-size="11" font-weight="700" fill="#59A14F">G</text>
<text x="165" y="500" text-anchor="middle" font-size="12.5" font-weight="600" fill="#2F3B4C">1.025 p.u.</text>
<text x="165" y="516" text-anchor="middle" font-size="11" fill="#6b7886">δ = +4.7°</text>
<circle cx="430" cy="140" r="29" fill="#4E79A7" filter="url(#sh)"/>
<circle cx="430" cy="140" r="29" fill="none" stroke="#fff" stroke-width="2.5"/>
<text x="430" y="146" text-anchor="middle" font-size="17" font-weight="700" fill="#fff">B4</text>
<text x="430" y="185" text-anchor="middle" font-size="12.5" font-weight="600" fill="#2F3B4C">1.026 p.u.</text>
<text x="430" y="201" text-anchor="middle" font-size="11" fill="#6b7886">δ = -2.2°</text>
<circle cx="274" cy="230" r="29" fill="#4E79A7" filter="url(#sh)"/>
<circle cx="274" cy="230" r="29" fill="none" stroke="#fff" stroke-width="2.5"/>
<text x="274" y="236" text-anchor="middle" font-size="17" font-weight="700" fill="#fff">B5</text>
<text x="274" y="275" text-anchor="middle" font-size="12.5" font-weight="600" fill="#2F3B4C">1.013 p.u.</text>
<text x="274" y="291" text-anchor="middle" font-size="11" fill="#6b7886">δ = -3.7°</text>
<text x="274" y="307" text-anchor="middle" font-size="10.5" font-weight="600" fill="#C0504D">▼ 90 MW</text>
<circle cx="274" cy="410" r="29" fill="#4E79A7" filter="url(#sh)"/>
<circle cx="274" cy="410" r="29" fill="none" stroke="#fff" stroke-width="2.5"/>
<text x="274" y="416" text-anchor="middle" font-size="17" font-weight="700" fill="#fff">B6</text>
<text x="274" y="455" text-anchor="middle" font-size="12.5" font-weight="600" fill="#2F3B4C">1.032 p.u.</text>
<text x="274" y="471" text-anchor="middle" font-size="11" fill="#6b7886">δ = +2.0°</text>
<circle cx="430" cy="500" r="29" fill="#4E79A7" filter="url(#sh)"/>
<circle cx="430" cy="500" r="29" fill="none" stroke="#fff" stroke-width="2.5"/>
<text x="430" y="506" text-anchor="middle" font-size="17" font-weight="700" fill="#fff">B7</text>
<text x="430" y="545" text-anchor="middle" font-size="12.5" font-weight="600" fill="#2F3B4C">1.016 p.u.</text>
<text x="430" y="561" text-anchor="middle" font-size="11" fill="#6b7886">δ = +0.7°</text>
<text x="430" y="577" text-anchor="middle" font-size="10.5" font-weight="600" fill="#C0504D">▼ 100 MW</text>
<circle cx="586" cy="410" r="29" fill="#4E79A7" filter="url(#sh)"/>
<circle cx="586" cy="410" r="29" fill="none" stroke="#fff" stroke-width="2.5"/>
<text x="586" y="416" text-anchor="middle" font-size="17" font-weight="700" fill="#fff">B8</text>
<text x="586" y="455" text-anchor="middle" font-size="12.5" font-weight="600" fill="#2F3B4C">1.026 p.u.</text>
<text x="586" y="471" text-anchor="middle" font-size="11" fill="#6b7886">δ = +3.7°</text>
<circle cx="586" cy="230" r="29" fill="#4E79A7" filter="url(#sh)"/>
<circle cx="586" cy="230" r="29" fill="none" stroke="#fff" stroke-width="2.5"/>
<text x="586" y="236" text-anchor="middle" font-size="17" font-weight="700" fill="#fff">B9</text>
<text x="586" y="275" text-anchor="middle" font-size="12.5" font-weight="600" fill="#2F3B4C">0.996 p.u.</text>
<text x="586" y="291" text-anchor="middle" font-size="11" fill="#6b7886">δ = -4.0°</text>
<text x="586" y="307" text-anchor="middle" font-size="10.5" font-weight="600" fill="#C0504D">▼ 125 MW</text>
<rect x="26" y="594" width="720" height="40" rx="10" fill="#fff" filter="url(#sh2)"/>
<circle cx="40" cy="614" r="9" fill="#E15759"/>
<text x="56" y="618" font-size="12.5" fill="#2F3B4C">Slack (referentni)</text>
<circle cx="225" cy="614" r="9" fill="#59A14F"/>
<text x="241" y="618" font-size="12.5" fill="#2F3B4C">PV — generator</text>
<circle cx="410" cy="614" r="9" fill="#4E79A7"/>
<text x="426" y="618" font-size="12.5" fill="#2F3B4C">PQ — potrošač/čvor</text>
<line x1="600" y1="614" x2="630" y2="614" stroke="#9AA7B4" stroke-width="3" stroke-dasharray="9 5"/>
<text x="636" y="618" font-size="12.5" fill="#2F3B4C">transformator</text>
</svg>