<svg xmlns="http://www.w3.org/2000/svg" viewBox="0 0 680 420" font-family="-apple-system,Helvetica Neue,Arial,sans-serif">
<defs>
<filter id="sh" x="-30%" y="-30%" width="160%" height="160%">
  <feDropShadow dx="0" dy="2" stdDeviation="2.5" flood-color="#000" flood-opacity="0.22"/>
</filter>
<filter id="sh2" x="-30%" y="-30%" width="160%" height="160%">
  <feDropShadow dx="0" dy="1.5" stdDeviation="1.8" flood-color="#000" flood-opacity="0.16"/>
</filter>
<marker id="ar" markerWidth="9" markerHeight="9" refX="7.5" refY="4.5" orient="auto">
  <path d="M0,0 L9,4.5 L0,9 z" fill="#5b6b7a"/></marker>
</defs>
<rect width="680" height="420" fill="#FBFCFE"/>
<text x="340.0" y="34" text-anchor="middle" font-size="19" font-weight="700" fill="#2F3B4C">Profil napona po čvorovima</text>
<rect x="78" y="104.5" width="540" height="245.5" fill="#59A14F" opacity="0.07"/>
<text x="614" y="119" text-anchor="end" font-size="10" fill="#59A14F">dozvoljeni opseg 0.95–1.05</text>
<line x1="78" y1="350.0" x2="618" y2="350.0" stroke="#E6EAEF" stroke-width="1"/>
<text x="69" y="354.0" text-anchor="end" font-size="10.5" fill="#6b7886">0.950</text>
<line x1="78" y1="288.6" x2="618" y2="288.6" stroke="#E6EAEF" stroke-width="1"/>
<text x="69" y="292.6" text-anchor="end" font-size="10.5" fill="#6b7886">0.975</text>
<line x1="78" y1="227.3" x2="618" y2="227.3" stroke="#E6EAEF" stroke-width="1"/>
<text x="69" y="231.3" text-anchor="end" font-size="10.5" fill="#6b7886">1.000</text>
<line x1="78" y1="165.9" x2="618" y2="165.9" stroke="#E6EAEF" stroke-width="1"/>
<text x="69" y="169.9" text-anchor="end" font-size="10.5" fill="#6b7886">1.025</text>
<line x1="78" y1="104.5" x2="618" y2="104.5" stroke="#E6EAEF" stroke-width="1"/>
<text x="69" y="108.5" text-anchor="end" font-size="10.5" fill="#6b7886">1.050</text>
<line x1="78" y1="227.3" x2="618" y2="227.3" stroke="#8A98A6" stroke-width="1.4" stroke-dasharray="6 4"/>
<line x1="78" y1="350" x2="78" y2="80" stroke="#2F3B4C" stroke-width="1.4"/>
<line x1="78" y1="350" x2="618" y2="350" stroke="#2F3B4C" stroke-width="1.4"/>
<rect x="96" y="129.1" width="44" height="220.9" rx="4" fill="#E15759" filter="url(#sh2)"/>
<text x="118" y="366" text-anchor="middle" font-size="11.5" font-weight="600" fill="#2F3B4C">B1</text>
<text x="118" y="124" text-anchor="middle" font-size="10" fill="#2F3B4C">1.040</text>
<rect x="154" y="165.9" width="44" height="184.1" rx="4" fill="#59A14F" filter="url(#sh2)"/>
<text x="176" y="366" text-anchor="middle" font-size="11.5" font-weight="600" fill="#2F3B4C">B2</text>
<text x="176" y="161" text-anchor="middle" font-size="10" fill="#2F3B4C">1.025</text>
<rect x="212" y="165.9" width="44" height="184.1" rx="4" fill="#59A14F" filter="url(#sh2)"/>
<text x="234" y="366" text-anchor="middle" font-size="11.5" font-weight="600" fill="#2F3B4C">B3</text>
<text x="234" y="161" text-anchor="middle" font-size="10" fill="#2F3B4C">1.025</text>
<rect x="270" y="163.9" width="44" height="186.1" rx="4" fill="#4E79A7" filter="url(#sh2)"/>
<text x="292" y="366" text-anchor="middle" font-size="11.5" font-weight="600" fill="#2F3B4C">B4</text>
<text x="292" y="159" text-anchor="middle" font-size="10" fill="#2F3B4C">1.026</text>
<rect x="328" y="196.1" width="44" height="153.9" rx="4" fill="#4E79A7" filter="url(#sh2)"/>
<text x="350" y="366" text-anchor="middle" font-size="11.5" font-weight="600" fill="#2F3B4C">B5</text>
<text x="350" y="191" text-anchor="middle" font-size="10" fill="#2F3B4C">1.013</text>
<rect x="386" y="147.7" width="44" height="202.3" rx="4" fill="#4E79A7" filter="url(#sh2)"/>
<text x="408" y="366" text-anchor="middle" font-size="11.5" font-weight="600" fill="#2F3B4C">B6</text>
<text x="408" y="143" text-anchor="middle" font-size="10" fill="#2F3B4C">1.032</text>
<rect x="444" y="188.2" width="44" height="161.8" rx="4" fill="#4E79A7" filter="url(#sh2)"/>
<text x="466" y="366" text-anchor="middle" font-size="11.5" font-weight="600" fill="#2F3B4C">B7</text>
<text x="466" y="183" text-anchor="middle" font-size="10" fill="#2F3B4C">1.016</text>
<rect x="502" y="163.9" width="44" height="186.1" rx="4" fill="#4E79A7" filter="url(#sh2)"/>
<text x="524" y="366" text-anchor="middle" font-size="11.5" font-weight="600" fill="#2F3B4C">B8</text>
<text x="524" y="159" text-anchor="middle" font-size="10" fill="#2F3B4C">1.026</text>
<rect x="560" y="238.1" width="44" height="111.9" rx="4" fill="#4E79A7" filter="url(#sh2)"/>
<text x="582" y="366" text-anchor="middle" font-size="11.5" font-weight="600" fill="#2F3B4C">B9</text>
<text x="582" y="233" text-anchor="middle" font-size="10" fill="#2F3B4C">0.996</text>
<text x="26" y="72" font-size="11" fill="#6b7886">|V| [p.u.]</text>
<rect x="78" y="396" width="14" height="14" rx="3" fill="#E15759"/>
<text x="97" y="408" font-size="11.5" fill="#2F3B4C">slack</text>
<rect x="168" y="396" width="14" height="14" rx="3" fill="#59A14F"/>
<text x="187" y="408" font-size="11.5" fill="#2F3B4C">PV</text>
<rect x="258" y="396" width="14" height="14" rx="3" fill="#4E79A7"/>
<text x="277" y="408" font-size="11.5" fill="#2F3B4C">PQ</text>
</svg>