<svg xmlns="http://www.w3.org/2000/svg" viewBox="0 0 640 420" font-family="-apple-system,Helvetica Neue,Arial">
<rect width="640" height="420" fill="#FBFCFE"/>
<text x="320.0" y="32" text-anchor="middle" font-size="18" font-weight="700" fill="#2F3B4C">Konvergencija Newton–Raphsona (case9)</text>
<line x1="80" y1="340" x2="580" y2="340" stroke="#E6EAEF"/>
<text x="72" y="344" text-anchor="end" font-size="10" fill="#6b7886">1e-14</text>
<line x1="80" y1="309" x2="580" y2="309" stroke="#E6EAEF"/>
<text x="72" y="313" text-anchor="end" font-size="10" fill="#6b7886">1e-12</text>
<line x1="80" y1="278" x2="580" y2="278" stroke="#E6EAEF"/>
<text x="72" y="282" text-anchor="end" font-size="10" fill="#6b7886">1e-10</text>
<line x1="80" y1="246" x2="580" y2="246" stroke="#E6EAEF"/>
<text x="72" y="250" text-anchor="end" font-size="10" fill="#6b7886">1e-8</text>
<line x1="80" y1="215" x2="580" y2="215" stroke="#E6EAEF"/>
<text x="72" y="219" text-anchor="end" font-size="10" fill="#6b7886">1e-6</text>
<line x1="80" y1="184" x2="580" y2="184" stroke="#E6EAEF"/>
<text x="72" y="188" text-anchor="end" font-size="10" fill="#6b7886">1e-4</text>
<line x1="80" y1="152" x2="580" y2="152" stroke="#E6EAEF"/>
<text x="72" y="156" text-anchor="end" font-size="10" fill="#6b7886">1e-2</text>
<line x1="80" y1="121" x2="580" y2="121" stroke="#E6EAEF"/>
<text x="72" y="125" text-anchor="end" font-size="10" fill="#6b7886">1e0</text>
<line x1="80" y1="90" x2="580" y2="90" stroke="#E6EAEF"/>
<text x="72" y="94" text-anchor="end" font-size="10" fill="#6b7886">1e2</text>
<line x1="80" y1="215" x2="580" y2="215" stroke="#E8A33D" stroke-width="1.4" stroke-dasharray="6 4"/>
<text x="576" y="209" text-anchor="end" font-size="10" fill="#E8A33D">tolerancija 1e-6</text>
<line x1="80" y1="340" x2="80" y2="90" stroke="#2F3B4C" stroke-width="1.3"/>
<line x1="80" y1="340" x2="580" y2="340" stroke="#2F3B4C" stroke-width="1.3"/>
<polyline points="80,118 205,133 330,163 455,222 580,318" fill="none" stroke="#4E79A7" stroke-width="3"/>
<circle cx="80" cy="118" r="5" fill="#4E79A7"/>
<text x="80" y="356" text-anchor="middle" font-size="10.5" fill="#2F3B4C">0</text>
<circle cx="205" cy="133" r="5" fill="#4E79A7"/>
<text x="205" y="356" text-anchor="middle" font-size="10.5" fill="#2F3B4C">1</text>
<circle cx="330" cy="163" r="5" fill="#4E79A7"/>
<text x="330" y="356" text-anchor="middle" font-size="10.5" fill="#2F3B4C">2</text>
<circle cx="455" cy="222" r="5" fill="#4E79A7"/>
<text x="455" y="356" text-anchor="middle" font-size="10.5" fill="#2F3B4C">3</text>
<circle cx="580" cy="318" r="5" fill="#4E79A7"/>
<text x="580" y="356" text-anchor="middle" font-size="10.5" fill="#2F3B4C">4</text>
<text x="330.0" y="374" text-anchor="middle" font-size="11.5" fill="#6b7886">iteracija</text>
<text x="24" y="84" font-size="10.5" fill="#6b7886">max |mismatch|</text>
</svg>